Patient4_TMGait_0pt5_01_right_03_EMG.mot
version=1
nRows=16
nColumns=33
inDegrees=no
endheader
time	1LAddLong	2LGlutMax	3LGlutMed	4LIliopsoas	5LSemiMemb	6LBicFemLong	7LRecFem	8LVastMed	9LVastLat	10LGasMed	11LTibAnt	12lTibPost	13LPeroneusLong	14LSol	15LExtDigLong	16LFlexDigLong	17RAddLong	18RGlutMax	19RGlutMed	20RIliopsoas	21RSemiMemb	22RBicFemLong	23RRecFem	24RVastMed	25RVastLat	26RGasMed	27RTibAnt	28RTibPost	29RPeroneusLong	30RSol	31RExtDigLong	32RFlexDigLong
4.16	-0.009613	-0.037537	0.006409	-0.008698	0.049286	0.10666	0.00061	0.009003	-0.24994	0.041504	0.011292	0.006561	-0.036621	-0.061646	0.095367	-0.014343	0.019379	-0.036774	0.16586	-0.037384	-0.049286	0.036163	-0.16525	-0.043793	-0.008087	-0.007172	-0.29419	-0.003052	-0.085602	-0.002899	-0.007935	-0.013123
4.161	-0.013428	-0.025635	-0.0177	0.004578	-0.077057	0.1387	0.025024	0.003357	-0.16846	0.02655	0.088196	0.010071	-0.063171	0.011749	0.053558	-0.021057	0.017242	-0.080872	-0.23529	0.01709	-0.033722	0.074615	-0.1886	-0.066223	-0.009766	-0.000916	-0.16083	0.000305	-0.13901	-0.046539	-0.001221	-0.014648
4.162	0.005646	-0.020905	0	0.001678	-0.089569	0.093689	0.003662	-0.003204	-0.064392	0.058289	0.055695	-0.000458	-0.065308	0.002136	0.057373	-0.020142	0.02121	-0.11444	-0.57816	0.055542	-0.028839	0.10956	-0.19684	-0.061035	-0.007324	-0.012207	0.016785	0.00061	-0.005798	-0.070038	-0.012207	-0.009155
4.163	0.007629	-0.016785	-0.005493	0.003357	-0.071869	0.092621	-0.01297	0.004272	-0.000763	-0.011139	-0.061646	0.002747	-0.013428	-0.016785	0.084229	-0.036774	0.011749	-0.10071	-0.4837	0.068665	-0.04364	0.14481	-0.19134	-0.06012	-0.017548	-0.007782	0.14908	-0.003815	0.075836	-0.024872	-0.01236	-0.002899
4.164	0.010071	0.038757	0.034332	0.01709	-0.10071	0.11963	-0.027618	0.014801	0.047607	0.050354	-0.24887	0.015564	-0.001068	0.028381	0.15717	-0.026703	0.009155	-0.11246	-0.52185	0.054169	-0.051727	0.10284	-0.22492	-0.036316	-0.016785	-0.014496	0.25345	-0.003204	0.053864	-0.001221	-0.007935	-0.015564
4.165	0.025177	0.042725	0.016937	0.005341	0.001373	0.16388	-0.052032	0.026398	0.059204	0.016937	-0.13138	0.008087	0.003204	0.084534	0.14023	-0.036621	0.006561	-0.074463	-0.33005	0.026093	-0.086365	0.089111	-0.21286	-0.057068	-0.025024	-0.02182	0.13153	-0.002899	-0.016937	-0.003357	-0.007019	-0.015411
4.166	0.01358	0.066681	-0.000458	-0.007629	0.068207	0.19913	-0.047455	0.03067	-0.040894	-0.003052	-0.097046	0.005798	0.029755	0.11581	-0.065308	-0.028687	0.003204	-0.097351	-0.12344	0.056	-0.095673	0.11139	-0.22324	-0.045013	-0.019836	-0.023651	-0.27908	-0.000153	0.071564	-0.041809	-0.009918	-0.018768
4.167	0.007782	0.11917	-0.026093	-0.021515	0.01358	0.12436	-0.011902	0.023346	-0.16602	0.018311	-0.081329	0.008087	-0.007477	0.11414	-0.06485	-0.015411	-0.005188	-0.070801	-0.38284	0.053864	-0.091858	0.12131	-0.24551	-0.066986	-0.030823	-0.019379	0.047913	-0.002899	0.081177	-0.001984	-0.00824	-0.016785
4.168	-0.004272	0.11948	-0.012512	0.000763	-0.055084	0.050964	0.022278	0.015869	-0.11536	0.003967	-0.034332	0.004578	-0.047302	0.12436	-0.031281	-0.022583	0.000763	-0.085907	-0.41077	0.004425	-0.070801	0.10361	-0.22232	-0.067596	-0.036621	-0.018768	0.44311	0.003815	0.065613	0.050049	-0.007629	-0.021362
4.169	0.001984	0.12756	0.035858	-0.000153	-0.015259	-0.062561	-0.005035	0.007172	-0.09079	0.006714	-0.071106	0.001526	-0.023346	0.14313	0.001068	-0.003967	0.013733	-0.16174	-0.43747	-0.06424	-0.095215	0.11551	-0.26718	-0.073242	-0.020142	-0.019379	0.35553	-0.001221	0.04715	0.096893	-0.006866	-0.01709
4.17	0.023499	0.22888	0.040436	0.006866	0.030518	-0.16968	-0.062714	-0.003662	-0.16327	0.002289	-0.080719	0.002899	0.020294	0.21835	0.04776	0.000763	0.01297	-0.13107	-0.52841	-0.16037	-0.13977	0.1326	-0.24277	-0.057526	-0.013733	-0.018311	-0.068817	-0.003204	-0.00824	0.041199	-0.00473	-0.020599
4.171	0.033264	0.30853	0.041351	-0.005646	0.070343	-0.23453	-0.12985	-0.006256	-0.21286	0.001678	-0.05127	0.011292	0.070801	0.23346	0.078583	0.001831	0.018005	-0.10376	-0.41122	-0.215	-0.13351	0.045929	-0.27969	-0.059967	-0.028839	-0.010529	-0.85266	-0.003662	-0.028076	-0.020447	-0.002747	-0.021057
4.172	0.033112	0.28198	-0.023041	0.000916	0.023956	-0.39139	-0.12543	0.001068	-0.066376	0.010986	-0.029907	0.004272	0.036011	0.22537	0.059204	0.012054	0.024414	-0.20233	-0.27588	-0.090637	-0.11139	-0.069733	-0.22553	-0.075836	-0.0354	-0.001221	-0.72525	-0.004578	-0.077972	-0.015411	-0.005188	-0.015106
4.173	0.003815	0.24597	-0.063019	0.016174	0.001221	-0.39932	-0.087738	0.011444	0.007477	0.021057	-0.025635	0.009003	0.031281	0.23743	0.047302	0.010071	0.017395	-0.17685	-0.27222	0.10117	-0.08194	-0.047302	-0.21637	-0.052032	-0.042114	-0.001678	-0.34317	-0.003204	-0.070496	-0.028229	-0.005341	-0.011444
4.174	-0.019073	0.19302	-0.065002	0.006714	-0.083313	-0.25055	-0.050659	0.006409	0.00946	-0.007324	-0.019073	0.003052	0.05661	0.25391	0.021515	-0.005341	0.00824	-0.12405	-0.33814	0.23666	-0.099335	0.029144	-0.2681	-0.027313	-0.008392	0.011292	-0.039978	-0.001984	0.045319	-0.02182	-0.006409	-0.006256
4.175	-0.036926	0.17441	0.063171	0.009918	-0.18417	-0.054626	0.029144	0.020447	0.053864	-0.014801	0.008392	0.007019	-0.076447	0.28198	-0.006256	0.008698	0.024414	-0.20264	-0.26947	0.2449	-0.066986	-0.027771	-0.21271	-0.036163	-0.008698	0.017242	0.15289	-0.005188	0.061493	-0.008392	-0.006104	-0.005035
